<mxfile host="app.diagrams.net" modified="2023-10-16T16:18:29.692Z" agent="Mozilla/5.0 (Windows NT 10.0; Win64; x64) AppleWebKit/537.36 (KHTML, like Gecko) Chrome/117.0.0.0 Safari/537.36" etag="wGUMP9iW7UAmyzBCgjh4" version="22.0.4" type="github">
  <diagram id="C5RBs43oDa-KdzZeNtuy" name="Page-1">
    <mxGraphModel dx="2261" dy="758" grid="1" gridSize="10" guides="1" tooltips="1" connect="1" arrows="1" fold="1" page="1" pageScale="1" pageWidth="827" pageHeight="1169" math="0" shadow="0">
      <root>
        <mxCell id="WIyWlLk6GJQsqaUBKTNV-0" />
        <mxCell id="WIyWlLk6GJQsqaUBKTNV-1" parent="WIyWlLk6GJQsqaUBKTNV-0" />
        <mxCell id="vHDyCQ4RkZ-QP8RhAM9h-11" value="Student" style="swimlane;fontStyle=1;align=center;verticalAlign=top;childLayout=stackLayout;horizontal=1;startSize=26;horizontalStack=0;resizeParent=1;resizeParentMax=0;resizeLast=0;collapsible=1;marginBottom=0;whiteSpace=wrap;html=1;" vertex="1" parent="WIyWlLk6GJQsqaUBKTNV-1">
          <mxGeometry x="150" y="140" width="160" height="170" as="geometry" />
        </mxCell>
        <mxCell id="vHDyCQ4RkZ-QP8RhAM9h-12" value="userID&lt;br&gt;password&lt;br&gt;email&lt;br&gt;firstName&lt;br&gt;lastName&lt;br&gt;" style="text;strokeColor=none;fillColor=none;align=left;verticalAlign=top;spacingLeft=4;spacingRight=4;overflow=hidden;rotatable=0;points=[[0,0.5],[1,0.5]];portConstraint=eastwest;whiteSpace=wrap;html=1;" vertex="1" parent="vHDyCQ4RkZ-QP8RhAM9h-11">
          <mxGeometry y="26" width="160" height="84" as="geometry" />
        </mxCell>
        <mxCell id="vHDyCQ4RkZ-QP8RhAM9h-13" value="" style="line;strokeWidth=1;fillColor=none;align=left;verticalAlign=middle;spacingTop=-1;spacingLeft=3;spacingRight=3;rotatable=0;labelPosition=right;points=[];portConstraint=eastwest;strokeColor=inherit;" vertex="1" parent="vHDyCQ4RkZ-QP8RhAM9h-11">
          <mxGeometry y="110" width="160" height="8" as="geometry" />
        </mxCell>
        <mxCell id="vHDyCQ4RkZ-QP8RhAM9h-14" value="enrollCourse()&lt;br&gt;enrollWaitlist()&lt;br&gt;enrollAppointment()&lt;br&gt;" style="text;strokeColor=none;fillColor=none;align=left;verticalAlign=top;spacingLeft=4;spacingRight=4;overflow=hidden;rotatable=0;points=[[0,0.5],[1,0.5]];portConstraint=eastwest;whiteSpace=wrap;html=1;" vertex="1" parent="vHDyCQ4RkZ-QP8RhAM9h-11">
          <mxGeometry y="118" width="160" height="52" as="geometry" />
        </mxCell>
        <mxCell id="vHDyCQ4RkZ-QP8RhAM9h-15" value="Profile" style="swimlane;fontStyle=1;align=center;verticalAlign=top;childLayout=stackLayout;horizontal=1;startSize=26;horizontalStack=0;resizeParent=1;resizeParentMax=0;resizeLast=0;collapsible=1;marginBottom=0;whiteSpace=wrap;html=1;" vertex="1" parent="WIyWlLk6GJQsqaUBKTNV-1">
          <mxGeometry x="500" y="130" width="160" height="88" as="geometry" />
        </mxCell>
        <mxCell id="vHDyCQ4RkZ-QP8RhAM9h-16" value="contactDetails&lt;br&gt;major&lt;br&gt;minor" style="text;strokeColor=none;fillColor=none;align=left;verticalAlign=top;spacingLeft=4;spacingRight=4;overflow=hidden;rotatable=0;points=[[0,0.5],[1,0.5]];portConstraint=eastwest;whiteSpace=wrap;html=1;" vertex="1" parent="vHDyCQ4RkZ-QP8RhAM9h-15">
          <mxGeometry y="26" width="160" height="54" as="geometry" />
        </mxCell>
        <mxCell id="vHDyCQ4RkZ-QP8RhAM9h-17" value="" style="line;strokeWidth=1;fillColor=none;align=left;verticalAlign=middle;spacingTop=-1;spacingLeft=3;spacingRight=3;rotatable=0;labelPosition=right;points=[];portConstraint=eastwest;strokeColor=inherit;" vertex="1" parent="vHDyCQ4RkZ-QP8RhAM9h-15">
          <mxGeometry y="80" width="160" height="8" as="geometry" />
        </mxCell>
        <mxCell id="vHDyCQ4RkZ-QP8RhAM9h-19" style="edgeStyle=orthogonalEdgeStyle;rounded=0;orthogonalLoop=1;jettySize=auto;html=1;exitX=1;exitY=0.5;exitDx=0;exitDy=0;entryX=0;entryY=0.5;entryDx=0;entryDy=0;startArrow=diamond;startFill=1;endArrow=classic;endFill=1;" edge="1" parent="WIyWlLk6GJQsqaUBKTNV-1" source="vHDyCQ4RkZ-QP8RhAM9h-12" target="vHDyCQ4RkZ-QP8RhAM9h-16">
          <mxGeometry relative="1" as="geometry" />
        </mxCell>
        <mxCell id="vHDyCQ4RkZ-QP8RhAM9h-20" value="Courses" style="swimlane;fontStyle=1;align=center;verticalAlign=top;childLayout=stackLayout;horizontal=1;startSize=26;horizontalStack=0;resizeParent=1;resizeParentMax=0;resizeLast=0;collapsible=1;marginBottom=0;whiteSpace=wrap;html=1;" vertex="1" parent="WIyWlLk6GJQsqaUBKTNV-1">
          <mxGeometry x="-160" y="390" width="160" height="128" as="geometry" />
        </mxCell>
        <mxCell id="vHDyCQ4RkZ-QP8RhAM9h-21" value="courseID&lt;br&gt;courseName&lt;br&gt;desc&lt;br&gt;proffessor&lt;br&gt;availableSeats&lt;br&gt;dept&lt;br&gt;" style="text;strokeColor=none;fillColor=none;align=left;verticalAlign=top;spacingLeft=4;spacingRight=4;overflow=hidden;rotatable=0;points=[[0,0.5],[1,0.5]];portConstraint=eastwest;whiteSpace=wrap;html=1;" vertex="1" parent="vHDyCQ4RkZ-QP8RhAM9h-20">
          <mxGeometry y="26" width="160" height="94" as="geometry" />
        </mxCell>
        <mxCell id="vHDyCQ4RkZ-QP8RhAM9h-22" value="" style="line;strokeWidth=1;fillColor=none;align=left;verticalAlign=middle;spacingTop=-1;spacingLeft=3;spacingRight=3;rotatable=0;labelPosition=right;points=[];portConstraint=eastwest;strokeColor=inherit;" vertex="1" parent="vHDyCQ4RkZ-QP8RhAM9h-20">
          <mxGeometry y="120" width="160" height="8" as="geometry" />
        </mxCell>
        <mxCell id="vHDyCQ4RkZ-QP8RhAM9h-24" value="Waitlists&lt;br&gt;" style="swimlane;fontStyle=1;align=center;verticalAlign=top;childLayout=stackLayout;horizontal=1;startSize=26;horizontalStack=0;resizeParent=1;resizeParentMax=0;resizeLast=0;collapsible=1;marginBottom=0;whiteSpace=wrap;html=1;" vertex="1" parent="WIyWlLk6GJQsqaUBKTNV-1">
          <mxGeometry x="180" y="410" width="160" height="86" as="geometry" />
        </mxCell>
        <mxCell id="vHDyCQ4RkZ-QP8RhAM9h-25" value="waitlistedStudents&lt;br&gt;" style="text;strokeColor=none;fillColor=none;align=left;verticalAlign=top;spacingLeft=4;spacingRight=4;overflow=hidden;rotatable=0;points=[[0,0.5],[1,0.5]];portConstraint=eastwest;whiteSpace=wrap;html=1;" vertex="1" parent="vHDyCQ4RkZ-QP8RhAM9h-24">
          <mxGeometry y="26" width="160" height="26" as="geometry" />
        </mxCell>
        <mxCell id="vHDyCQ4RkZ-QP8RhAM9h-26" value="" style="line;strokeWidth=1;fillColor=none;align=left;verticalAlign=middle;spacingTop=-1;spacingLeft=3;spacingRight=3;rotatable=0;labelPosition=right;points=[];portConstraint=eastwest;strokeColor=inherit;" vertex="1" parent="vHDyCQ4RkZ-QP8RhAM9h-24">
          <mxGeometry y="52" width="160" height="8" as="geometry" />
        </mxCell>
        <mxCell id="vHDyCQ4RkZ-QP8RhAM9h-27" value="removeStudentFromWait()" style="text;strokeColor=none;fillColor=none;align=left;verticalAlign=top;spacingLeft=4;spacingRight=4;overflow=hidden;rotatable=0;points=[[0,0.5],[1,0.5]];portConstraint=eastwest;whiteSpace=wrap;html=1;" vertex="1" parent="vHDyCQ4RkZ-QP8RhAM9h-24">
          <mxGeometry y="60" width="160" height="26" as="geometry" />
        </mxCell>
        <mxCell id="vHDyCQ4RkZ-QP8RhAM9h-32" value="Appointments&lt;br&gt;" style="swimlane;fontStyle=1;align=center;verticalAlign=top;childLayout=stackLayout;horizontal=1;startSize=26;horizontalStack=0;resizeParent=1;resizeParentMax=0;resizeLast=0;collapsible=1;marginBottom=0;whiteSpace=wrap;html=1;" vertex="1" parent="WIyWlLk6GJQsqaUBKTNV-1">
          <mxGeometry x="-170" y="10" width="160" height="68" as="geometry" />
        </mxCell>
        <mxCell id="vHDyCQ4RkZ-QP8RhAM9h-33" value="timeSlot&lt;br&gt;status" style="text;strokeColor=none;fillColor=none;align=left;verticalAlign=top;spacingLeft=4;spacingRight=4;overflow=hidden;rotatable=0;points=[[0,0.5],[1,0.5]];portConstraint=eastwest;whiteSpace=wrap;html=1;" vertex="1" parent="vHDyCQ4RkZ-QP8RhAM9h-32">
          <mxGeometry y="26" width="160" height="34" as="geometry" />
        </mxCell>
        <mxCell id="vHDyCQ4RkZ-QP8RhAM9h-34" value="" style="line;strokeWidth=1;fillColor=none;align=left;verticalAlign=middle;spacingTop=-1;spacingLeft=3;spacingRight=3;rotatable=0;labelPosition=right;points=[];portConstraint=eastwest;strokeColor=inherit;" vertex="1" parent="vHDyCQ4RkZ-QP8RhAM9h-32">
          <mxGeometry y="60" width="160" height="8" as="geometry" />
        </mxCell>
        <mxCell id="vHDyCQ4RkZ-QP8RhAM9h-37" style="edgeStyle=orthogonalEdgeStyle;rounded=0;orthogonalLoop=1;jettySize=auto;html=1;exitX=1;exitY=0.5;exitDx=0;exitDy=0;entryX=0.019;entryY=0.923;entryDx=0;entryDy=0;entryPerimeter=0;startArrow=diamond;startFill=1;endArrow=classic;endFill=1;" edge="1" parent="WIyWlLk6GJQsqaUBKTNV-1" source="vHDyCQ4RkZ-QP8RhAM9h-21" target="vHDyCQ4RkZ-QP8RhAM9h-25">
          <mxGeometry relative="1" as="geometry" />
        </mxCell>
        <mxCell id="vHDyCQ4RkZ-QP8RhAM9h-39" style="edgeStyle=orthogonalEdgeStyle;rounded=0;orthogonalLoop=1;jettySize=auto;html=1;exitX=0;exitY=0.5;exitDx=0;exitDy=0;entryX=0.5;entryY=0;entryDx=0;entryDy=0;" edge="1" parent="WIyWlLk6GJQsqaUBKTNV-1" source="vHDyCQ4RkZ-QP8RhAM9h-12" target="vHDyCQ4RkZ-QP8RhAM9h-20">
          <mxGeometry relative="1" as="geometry" />
        </mxCell>
        <mxCell id="vHDyCQ4RkZ-QP8RhAM9h-40" style="edgeStyle=orthogonalEdgeStyle;rounded=0;orthogonalLoop=1;jettySize=auto;html=1;exitX=0;exitY=0.5;exitDx=0;exitDy=0;entryX=1;entryY=0.5;entryDx=0;entryDy=0;" edge="1" parent="WIyWlLk6GJQsqaUBKTNV-1" source="vHDyCQ4RkZ-QP8RhAM9h-12" target="vHDyCQ4RkZ-QP8RhAM9h-32">
          <mxGeometry relative="1" as="geometry" />
        </mxCell>
        <mxCell id="vHDyCQ4RkZ-QP8RhAM9h-41" style="edgeStyle=orthogonalEdgeStyle;rounded=0;orthogonalLoop=1;jettySize=auto;html=1;exitX=1;exitY=0.5;exitDx=0;exitDy=0;entryX=1;entryY=0;entryDx=0;entryDy=0;" edge="1" parent="WIyWlLk6GJQsqaUBKTNV-1" source="vHDyCQ4RkZ-QP8RhAM9h-14" target="vHDyCQ4RkZ-QP8RhAM9h-24">
          <mxGeometry relative="1" as="geometry" />
        </mxCell>
        <mxCell id="vHDyCQ4RkZ-QP8RhAM9h-46" style="edgeStyle=orthogonalEdgeStyle;rounded=0;orthogonalLoop=1;jettySize=auto;html=1;exitX=0.5;exitY=0;exitDx=0;exitDy=0;entryX=0;entryY=0.5;entryDx=0;entryDy=0;" edge="1" parent="WIyWlLk6GJQsqaUBKTNV-1" source="vHDyCQ4RkZ-QP8RhAM9h-42" target="vHDyCQ4RkZ-QP8RhAM9h-33">
          <mxGeometry relative="1" as="geometry" />
        </mxCell>
        <mxCell id="vHDyCQ4RkZ-QP8RhAM9h-42" value="Advisor" style="swimlane;fontStyle=1;align=center;verticalAlign=top;childLayout=stackLayout;horizontal=1;startSize=26;horizontalStack=0;resizeParent=1;resizeParentMax=0;resizeLast=0;collapsible=1;marginBottom=0;whiteSpace=wrap;html=1;" vertex="1" parent="WIyWlLk6GJQsqaUBKTNV-1">
          <mxGeometry x="-330" y="160" width="160" height="114" as="geometry" />
        </mxCell>
        <mxCell id="vHDyCQ4RkZ-QP8RhAM9h-43" value="advisorID&lt;br&gt;name&lt;br&gt;department&lt;br&gt;" style="text;strokeColor=none;fillColor=none;align=left;verticalAlign=top;spacingLeft=4;spacingRight=4;overflow=hidden;rotatable=0;points=[[0,0.5],[1,0.5]];portConstraint=eastwest;whiteSpace=wrap;html=1;" vertex="1" parent="vHDyCQ4RkZ-QP8RhAM9h-42">
          <mxGeometry y="26" width="160" height="54" as="geometry" />
        </mxCell>
        <mxCell id="vHDyCQ4RkZ-QP8RhAM9h-44" value="" style="line;strokeWidth=1;fillColor=none;align=left;verticalAlign=middle;spacingTop=-1;spacingLeft=3;spacingRight=3;rotatable=0;labelPosition=right;points=[];portConstraint=eastwest;strokeColor=inherit;" vertex="1" parent="vHDyCQ4RkZ-QP8RhAM9h-42">
          <mxGeometry y="80" width="160" height="8" as="geometry" />
        </mxCell>
        <mxCell id="vHDyCQ4RkZ-QP8RhAM9h-45" value="checkoffAppointment()" style="text;strokeColor=none;fillColor=none;align=left;verticalAlign=top;spacingLeft=4;spacingRight=4;overflow=hidden;rotatable=0;points=[[0,0.5],[1,0.5]];portConstraint=eastwest;whiteSpace=wrap;html=1;" vertex="1" parent="vHDyCQ4RkZ-QP8RhAM9h-42">
          <mxGeometry y="88" width="160" height="26" as="geometry" />
        </mxCell>
        <mxCell id="vHDyCQ4RkZ-QP8RhAM9h-47" value="0" style="text;html=1;align=center;verticalAlign=middle;resizable=0;points=[];autosize=1;strokeColor=none;fillColor=none;" vertex="1" parent="WIyWlLk6GJQsqaUBKTNV-1">
          <mxGeometry x="125" y="178" width="30" height="30" as="geometry" />
        </mxCell>
        <mxCell id="vHDyCQ4RkZ-QP8RhAM9h-48" value="n&lt;br&gt;" style="text;html=1;align=center;verticalAlign=middle;resizable=0;points=[];autosize=1;strokeColor=none;fillColor=none;" vertex="1" parent="WIyWlLk6GJQsqaUBKTNV-1">
          <mxGeometry x="-10" y="48" width="30" height="30" as="geometry" />
        </mxCell>
        <mxCell id="vHDyCQ4RkZ-QP8RhAM9h-49" value="n" style="text;html=1;align=center;verticalAlign=middle;resizable=0;points=[];autosize=1;strokeColor=none;fillColor=none;" vertex="1" parent="WIyWlLk6GJQsqaUBKTNV-1">
          <mxGeometry x="-85" y="348" width="30" height="30" as="geometry" />
        </mxCell>
        <mxCell id="vHDyCQ4RkZ-QP8RhAM9h-50" value="n&lt;br&gt;" style="text;html=1;align=center;verticalAlign=middle;resizable=0;points=[];autosize=1;strokeColor=none;fillColor=none;" vertex="1" parent="WIyWlLk6GJQsqaUBKTNV-1">
          <mxGeometry x="310" y="378" width="30" height="30" as="geometry" />
        </mxCell>
        <mxCell id="vHDyCQ4RkZ-QP8RhAM9h-51" value="" style="ellipse;html=1;shape=endState;fillColor=#000000;strokeColor=#ff0000;" vertex="1" parent="WIyWlLk6GJQsqaUBKTNV-1">
          <mxGeometry x="827" y="955" width="30" height="30" as="geometry" />
        </mxCell>
        <mxCell id="vHDyCQ4RkZ-QP8RhAM9h-52" value="" style="ellipse;html=1;shape=startState;fillColor=#000000;strokeColor=#ff0000;" vertex="1" parent="WIyWlLk6GJQsqaUBKTNV-1">
          <mxGeometry x="-290" y="640" width="30" height="30" as="geometry" />
        </mxCell>
        <mxCell id="vHDyCQ4RkZ-QP8RhAM9h-53" value="" style="edgeStyle=orthogonalEdgeStyle;html=1;verticalAlign=bottom;endArrow=open;endSize=8;strokeColor=#ff0000;rounded=0;entryX=0.5;entryY=0;entryDx=0;entryDy=0;" edge="1" source="vHDyCQ4RkZ-QP8RhAM9h-52" parent="WIyWlLk6GJQsqaUBKTNV-1" target="vHDyCQ4RkZ-QP8RhAM9h-54">
          <mxGeometry relative="1" as="geometry">
            <mxPoint x="-270" y="720" as="targetPoint" />
          </mxGeometry>
        </mxCell>
        <mxCell id="vHDyCQ4RkZ-QP8RhAM9h-65" style="edgeStyle=orthogonalEdgeStyle;rounded=0;orthogonalLoop=1;jettySize=auto;html=1;exitX=0.5;exitY=1;exitDx=0;exitDy=0;entryX=0.5;entryY=0;entryDx=0;entryDy=0;" edge="1" parent="WIyWlLk6GJQsqaUBKTNV-1" source="vHDyCQ4RkZ-QP8RhAM9h-54" target="vHDyCQ4RkZ-QP8RhAM9h-55">
          <mxGeometry relative="1" as="geometry" />
        </mxCell>
        <mxCell id="vHDyCQ4RkZ-QP8RhAM9h-54" value="Login" style="rounded=1;whiteSpace=wrap;html=1;" vertex="1" parent="WIyWlLk6GJQsqaUBKTNV-1">
          <mxGeometry x="-335" y="740" width="120" height="60" as="geometry" />
        </mxCell>
        <mxCell id="vHDyCQ4RkZ-QP8RhAM9h-66" style="edgeStyle=orthogonalEdgeStyle;rounded=0;orthogonalLoop=1;jettySize=auto;html=1;exitX=0.5;exitY=1;exitDx=0;exitDy=0;entryX=0.5;entryY=0;entryDx=0;entryDy=0;" edge="1" parent="WIyWlLk6GJQsqaUBKTNV-1" source="vHDyCQ4RkZ-QP8RhAM9h-55" target="vHDyCQ4RkZ-QP8RhAM9h-56">
          <mxGeometry relative="1" as="geometry" />
        </mxCell>
        <mxCell id="vHDyCQ4RkZ-QP8RhAM9h-55" value="View Courses" style="rounded=1;whiteSpace=wrap;html=1;" vertex="1" parent="WIyWlLk6GJQsqaUBKTNV-1">
          <mxGeometry x="-335" y="840" width="120" height="60" as="geometry" />
        </mxCell>
        <mxCell id="vHDyCQ4RkZ-QP8RhAM9h-67" style="edgeStyle=orthogonalEdgeStyle;rounded=0;orthogonalLoop=1;jettySize=auto;html=1;exitX=1;exitY=0.5;exitDx=0;exitDy=0;entryX=0;entryY=0.5;entryDx=0;entryDy=0;" edge="1" parent="WIyWlLk6GJQsqaUBKTNV-1" source="vHDyCQ4RkZ-QP8RhAM9h-56" target="vHDyCQ4RkZ-QP8RhAM9h-57">
          <mxGeometry relative="1" as="geometry" />
        </mxCell>
        <mxCell id="vHDyCQ4RkZ-QP8RhAM9h-56" value="Select Courses" style="rounded=1;whiteSpace=wrap;html=1;" vertex="1" parent="WIyWlLk6GJQsqaUBKTNV-1">
          <mxGeometry x="-335" y="960" width="120" height="60" as="geometry" />
        </mxCell>
        <mxCell id="vHDyCQ4RkZ-QP8RhAM9h-68" style="edgeStyle=orthogonalEdgeStyle;rounded=0;orthogonalLoop=1;jettySize=auto;html=1;exitX=1;exitY=0.5;exitDx=0;exitDy=0;entryX=0;entryY=0.5;entryDx=0;entryDy=0;" edge="1" parent="WIyWlLk6GJQsqaUBKTNV-1" source="vHDyCQ4RkZ-QP8RhAM9h-57" target="vHDyCQ4RkZ-QP8RhAM9h-59">
          <mxGeometry relative="1" as="geometry" />
        </mxCell>
        <mxCell id="vHDyCQ4RkZ-QP8RhAM9h-57" value="Check Capacity" style="rounded=1;whiteSpace=wrap;html=1;" vertex="1" parent="WIyWlLk6GJQsqaUBKTNV-1">
          <mxGeometry x="-160" y="960" width="120" height="60" as="geometry" />
        </mxCell>
        <mxCell id="vHDyCQ4RkZ-QP8RhAM9h-69" style="edgeStyle=orthogonalEdgeStyle;rounded=0;orthogonalLoop=1;jettySize=auto;html=1;exitX=1;exitY=0;exitDx=0;exitDy=0;" edge="1" parent="WIyWlLk6GJQsqaUBKTNV-1" source="vHDyCQ4RkZ-QP8RhAM9h-59" target="vHDyCQ4RkZ-QP8RhAM9h-60">
          <mxGeometry relative="1" as="geometry">
            <Array as="points">
              <mxPoint x="105" y="880" />
            </Array>
          </mxGeometry>
        </mxCell>
        <mxCell id="vHDyCQ4RkZ-QP8RhAM9h-70" style="edgeStyle=orthogonalEdgeStyle;rounded=0;orthogonalLoop=1;jettySize=auto;html=1;exitX=1;exitY=1;exitDx=0;exitDy=0;entryX=0;entryY=0.75;entryDx=0;entryDy=0;" edge="1" parent="WIyWlLk6GJQsqaUBKTNV-1" source="vHDyCQ4RkZ-QP8RhAM9h-59" target="vHDyCQ4RkZ-QP8RhAM9h-61">
          <mxGeometry relative="1" as="geometry">
            <Array as="points">
              <mxPoint x="105" y="1095" />
            </Array>
          </mxGeometry>
        </mxCell>
        <mxCell id="vHDyCQ4RkZ-QP8RhAM9h-59" value="" style="rhombus;whiteSpace=wrap;html=1;" vertex="1" parent="WIyWlLk6GJQsqaUBKTNV-1">
          <mxGeometry x="45" y="950" width="80" height="80" as="geometry" />
        </mxCell>
        <mxCell id="vHDyCQ4RkZ-QP8RhAM9h-71" style="edgeStyle=orthogonalEdgeStyle;rounded=0;orthogonalLoop=1;jettySize=auto;html=1;exitX=1;exitY=0.5;exitDx=0;exitDy=0;entryX=0.5;entryY=0;entryDx=0;entryDy=0;" edge="1" parent="WIyWlLk6GJQsqaUBKTNV-1" source="vHDyCQ4RkZ-QP8RhAM9h-60" target="vHDyCQ4RkZ-QP8RhAM9h-62">
          <mxGeometry relative="1" as="geometry" />
        </mxCell>
        <mxCell id="vHDyCQ4RkZ-QP8RhAM9h-60" value="Register Course" style="rounded=1;whiteSpace=wrap;html=1;" vertex="1" parent="WIyWlLk6GJQsqaUBKTNV-1">
          <mxGeometry x="230" y="860" width="120" height="60" as="geometry" />
        </mxCell>
        <mxCell id="vHDyCQ4RkZ-QP8RhAM9h-72" style="edgeStyle=orthogonalEdgeStyle;rounded=0;orthogonalLoop=1;jettySize=auto;html=1;exitX=1;exitY=0.5;exitDx=0;exitDy=0;entryX=0.5;entryY=1;entryDx=0;entryDy=0;" edge="1" parent="WIyWlLk6GJQsqaUBKTNV-1" source="vHDyCQ4RkZ-QP8RhAM9h-61" target="vHDyCQ4RkZ-QP8RhAM9h-62">
          <mxGeometry relative="1" as="geometry" />
        </mxCell>
        <mxCell id="vHDyCQ4RkZ-QP8RhAM9h-61" value="Join Waitlist" style="rounded=1;whiteSpace=wrap;html=1;" vertex="1" parent="WIyWlLk6GJQsqaUBKTNV-1">
          <mxGeometry x="240" y="1050" width="120" height="60" as="geometry" />
        </mxCell>
        <mxCell id="vHDyCQ4RkZ-QP8RhAM9h-73" style="edgeStyle=orthogonalEdgeStyle;rounded=0;orthogonalLoop=1;jettySize=auto;html=1;exitX=1;exitY=0.5;exitDx=0;exitDy=0;" edge="1" parent="WIyWlLk6GJQsqaUBKTNV-1" source="vHDyCQ4RkZ-QP8RhAM9h-62" target="vHDyCQ4RkZ-QP8RhAM9h-63">
          <mxGeometry relative="1" as="geometry" />
        </mxCell>
        <mxCell id="vHDyCQ4RkZ-QP8RhAM9h-62" value="Receive Notification" style="rounded=1;whiteSpace=wrap;html=1;" vertex="1" parent="WIyWlLk6GJQsqaUBKTNV-1">
          <mxGeometry x="460" y="940" width="120" height="60" as="geometry" />
        </mxCell>
        <mxCell id="vHDyCQ4RkZ-QP8RhAM9h-74" style="edgeStyle=orthogonalEdgeStyle;rounded=0;orthogonalLoop=1;jettySize=auto;html=1;exitX=1;exitY=0.5;exitDx=0;exitDy=0;entryX=0;entryY=0.5;entryDx=0;entryDy=0;" edge="1" parent="WIyWlLk6GJQsqaUBKTNV-1" source="vHDyCQ4RkZ-QP8RhAM9h-63" target="vHDyCQ4RkZ-QP8RhAM9h-51">
          <mxGeometry relative="1" as="geometry" />
        </mxCell>
        <mxCell id="vHDyCQ4RkZ-QP8RhAM9h-63" value="View Updated Schedule" style="rounded=1;whiteSpace=wrap;html=1;" vertex="1" parent="WIyWlLk6GJQsqaUBKTNV-1">
          <mxGeometry x="630" y="940" width="120" height="60" as="geometry" />
        </mxCell>
        <mxCell id="vHDyCQ4RkZ-QP8RhAM9h-75" value="If not full" style="text;html=1;align=center;verticalAlign=middle;resizable=0;points=[];autosize=1;strokeColor=none;fillColor=none;" vertex="1" parent="WIyWlLk6GJQsqaUBKTNV-1">
          <mxGeometry x="105" y="838" width="70" height="30" as="geometry" />
        </mxCell>
        <mxCell id="vHDyCQ4RkZ-QP8RhAM9h-76" value="If full&lt;br&gt;" style="text;html=1;align=center;verticalAlign=middle;resizable=0;points=[];autosize=1;strokeColor=none;fillColor=none;" vertex="1" parent="WIyWlLk6GJQsqaUBKTNV-1">
          <mxGeometry x="115" y="1108" width="50" height="30" as="geometry" />
        </mxCell>
        <mxCell id="vHDyCQ4RkZ-QP8RhAM9h-77" value="" style="shape=collate;html=1;" vertex="1" parent="WIyWlLk6GJQsqaUBKTNV-1">
          <mxGeometry x="450" y="1060" width="40" height="40" as="geometry" />
        </mxCell>
        <mxCell id="vHDyCQ4RkZ-QP8RhAM9h-78" value="Needs waitlist to uplift" style="text;html=1;align=center;verticalAlign=middle;resizable=0;points=[];autosize=1;strokeColor=none;fillColor=none;" vertex="1" parent="WIyWlLk6GJQsqaUBKTNV-1">
          <mxGeometry x="400" y="1100" width="140" height="30" as="geometry" />
        </mxCell>
      </root>
    </mxGraphModel>
  </diagram>
</mxfile>
